<?xml version="1.0" encoding="UTF-8" standalone="no"?>
<!-- Created with Inkscape (http://www.inkscape.org/) -->

<svg
   xmlns:dc="http://purl.org/dc/elements/1.1/"
   xmlns:cc="http://creativecommons.org/ns#"
   xmlns:rdf="http://www.w3.org/1999/02/22-rdf-syntax-ns#"
   xmlns:svg="http://www.w3.org/2000/svg"
   xmlns="http://www.w3.org/2000/svg"
   xmlns:sodipodi="http://sodipodi.sourceforge.net/DTD/sodipodi-0.dtd"
   xmlns:inkscape="http://www.inkscape.org/namespaces/inkscape"
   width="7.67027mm"
   height="4.2334199mm"
   viewBox="0 0 27.178122 15.000307"
   id="svg3764"
   version="1.1"
   inkscape:version="0.91 r13725"
   sodipodi:docname="button_back_home.svg">
  <defs
     id="defs3766" />
  <sodipodi:namedview
     id="base"
     pagecolor="#ffffff"
     bordercolor="#666666"
     borderopacity="1.0"
     inkscape:pageopacity="0.0"
     inkscape:pageshadow="2"
     inkscape:zoom="5.6"
     inkscape:cx="19.124839"
     inkscape:cy="-0.66266949"
     inkscape:document-units="px"
     inkscape:current-layer="layer1"
     showgrid="false"
     fit-margin-top="0"
     fit-margin-left="0"
     fit-margin-right="0"
     fit-margin-bottom="0"
     inkscape:window-width="1366"
     inkscape:window-height="702"
     inkscape:window-x="0"
     inkscape:window-y="27"
     inkscape:window-maximized="1" />
  <metadata
     id="metadata3769">
    <rdf:RDF>
      <cc:Work
         rdf:about="">
        <dc:format>image/svg+xml</dc:format>
        <dc:type
           rdf:resource="http://purl.org/dc/dcmitype/StillImage" />
        <dc:title></dc:title>
      </cc:Work>
    </rdf:RDF>
  </metadata>
  <g
     inkscape:label="Calque 1"
     inkscape:groupmode="layer"
     id="layer1"
     transform="translate(-77.83951,-416.29062)">
    <rect
       y="416.29092"
       x="90.017632"
       height="7.5"
       width="7.5"
       id="rect3588-3"
       style="opacity:1;fill:#3465a4;fill-opacity:1;fill-rule:evenodd;stroke:none;stroke-width:1;stroke-linecap:round;stroke-linejoin:round;stroke-miterlimit:4;stroke-dasharray:none;stroke-dashoffset:0;stroke-opacity:1" />
    <rect
       style="opacity:1;fill:#73d216;fill-opacity:1;fill-rule:evenodd;stroke:none;stroke-width:1;stroke-linecap:round;stroke-linejoin:round;stroke-miterlimit:4;stroke-dasharray:none;stroke-dashoffset:0;stroke-opacity:1"
       id="rect3590-2"
       width="7.5"
       height="7.5"
       x="90.017632"
       y="423.79092" />
    <rect
       y="423.79092"
       x="97.517632"
       height="7.5"
       width="7.5"
       id="rect3592-4"
       style="opacity:1;fill:#cc0000;fill-opacity:1;fill-rule:evenodd;stroke:none;stroke-width:1;stroke-linecap:round;stroke-linejoin:round;stroke-miterlimit:4;stroke-dasharray:none;stroke-dashoffset:0;stroke-opacity:1" />
    <rect
       style="opacity:1;fill:#f57900;fill-opacity:1;fill-rule:evenodd;stroke:none;stroke-width:1;stroke-linecap:round;stroke-linejoin:round;stroke-miterlimit:4;stroke-dasharray:none;stroke-dashoffset:0;stroke-opacity:1"
       id="rect3594-94"
       width="7.5"
       height="7.5"
       x="97.517632"
       y="416.29092" />
    <path
       style="color:#000000;font-style:normal;font-variant:normal;font-weight:normal;font-stretch:normal;font-size:medium;line-height:normal;font-family:sans-serif;text-indent:0;text-align:start;text-decoration:none;text-decoration-line:none;text-decoration-style:solid;text-decoration-color:#000000;letter-spacing:normal;word-spacing:normal;text-transform:none;direction:ltr;block-progression:tb;writing-mode:lr-tb;baseline-shift:baseline;text-anchor:start;white-space:normal;clip-rule:nonzero;display:inline;overflow:visible;visibility:visible;opacity:1;isolation:auto;mix-blend-mode:normal;color-interpolation:sRGB;color-interpolation-filters:linearRGB;solid-color:#000000;solid-opacity:1;fill:#ffffff;fill-opacity:1;fill-rule:evenodd;stroke:none;stroke-width:16;stroke-linecap:round;stroke-linejoin:round;stroke-miterlimit:4;stroke-dasharray:none;stroke-dashoffset:0;stroke-opacity:1;color-rendering:auto;image-rendering:auto;shape-rendering:auto;text-rendering:auto;enable-background:accumulate"
       d="m 85.245759,416.29116 c -0.392621,0.01 -0.763978,0.17306 -1.035478,0.45487 l -5.90086,5.93053 -0.02057,0.0207 c -0.0212,0.0212 -0.04178,0.043 -0.06172,0.0655 -0.01891,0.0213 -0.0372,0.0431 -0.05486,0.0655 -0.0318,0.0398 -0.06156,0.0812 -0.08915,0.12405 -0.05598,0.0856 -0.103086,0.17681 -0.140578,0.27223 -0.01842,0.0474 -0.03444,0.0957 -0.048,0.14473 -0.01222,0.0431 -0.02251,0.0868 -0.03086,0.13095 -0.0025,0.0148 -0.0048,0.0298 -0.0069,0.0448 -0.0063,0.0411 -0.01083,0.0825 -0.01371,0.12405 -0.0029,0.0424 -0.0041,0.0849 -0.0034,0.12751 0.0012,0.0334 0.0035,0.0667 0.0069,0.0999 -2.54e-4,0.0161 -2.54e-4,0.0322 0,0.0482 0.01109,0.0984 0.03177,0.19535 0.06172,0.28946 0.04514,0.14628 0.112193,0.28455 0.198866,0.41007 0.02778,0.0405 0.05753,0.0796 0.08915,0.11717 l 0.0034,0.003 0.01715,0.0207 c 0.02311,0.0261 0.04713,0.0514 0.072,0.0758 l 0.01715,0.0138 5.904288,5.93742 c 0.328364,0.33731 0.698007,0.47839 1.054103,0.47839 1.179902,0 2.211086,-1.54896 1.099146,-2.64243 l -4.844828,-4.86923 4.844808,-4.86917 c 0.987126,-0.96029 0.264183,-2.65415 -1.117769,-2.61894 z"
       id="path4198-5-99"
       inkscape:connector-curvature="0"
       sodipodi:nodetypes="cccccccccccccccccccccccscccc" />
  </g>
</svg>
