<?xml version="1.0" encoding="UTF-8" standalone="no"?>
<!-- Created with Inkscape (http://www.inkscape.org/) -->

<svg
   xmlns:dc="http://purl.org/dc/elements/1.1/"
   xmlns:cc="http://creativecommons.org/ns#"
   xmlns:rdf="http://www.w3.org/1999/02/22-rdf-syntax-ns#"
   xmlns:svg="http://www.w3.org/2000/svg"
   xmlns="http://www.w3.org/2000/svg"
   xmlns:sodipodi="http://sodipodi.sourceforge.net/DTD/sodipodi-0.dtd"
   xmlns:inkscape="http://www.inkscape.org/namespaces/inkscape"
   width="62.17749mm"
   height="31.850504mm"
   viewBox="0 0 220.31394 112.85612"
   id="svg6940"
   version="1.1"
   inkscape:version="0.91 r13725"
   sodipodi:docname="fireworks.svg">
  <defs
     id="defs6942" />
  <sodipodi:namedview
     id="base"
     pagecolor="#ffffff"
     bordercolor="#666666"
     borderopacity="1.0"
     inkscape:pageopacity="0.0"
     inkscape:pageshadow="2"
     inkscape:zoom="0.7"
     inkscape:cx="-74.228564"
     inkscape:cy="-4.7866966"
     inkscape:document-units="px"
     inkscape:current-layer="layer1"
     showgrid="false"
     fit-margin-top="0"
     fit-margin-left="0"
     fit-margin-right="0"
     fit-margin-bottom="0"
     inkscape:window-width="1366"
     inkscape:window-height="702"
     inkscape:window-x="0"
     inkscape:window-y="27"
     inkscape:window-maximized="1" />
  <metadata
     id="metadata6945">
    <rdf:RDF>
      <cc:Work
         rdf:about="">
        <dc:format>image/svg+xml</dc:format>
        <dc:type
           rdf:resource="http://purl.org/dc/dcmitype/StillImage" />
        <dc:title></dc:title>
      </cc:Work>
    </rdf:RDF>
  </metadata>
  <g
     inkscape:label="Calque 1"
     inkscape:groupmode="layer"
     id="layer1"
     transform="translate(-289.84303,-418.79128)">
    <path
       sodipodi:type="star"
       style="display:inline;opacity:1;fill:#edd400;fill-opacity:1;fill-rule:evenodd;stroke:#fce94f;stroke-width:1.29797757;stroke-linecap:round;stroke-linejoin:round;stroke-miterlimit:4;stroke-dasharray:none;stroke-dashoffset:0;stroke-opacity:1"
       id="path5841"
       sodipodi:sides="12"
       sodipodi:cx="324.53238"
       sodipodi:cy="449.28577"
       sodipodi:r1="30.106363"
       sodipodi:r2="0.30106363"
       sodipodi:arg1="0.9151007"
       sodipodi:arg2="1.1769001"
       inkscape:flatsided="false"
       inkscape:rounded="0.08"
       inkscape:randomized="0"
       d="m 342.88855,473.14879 c -1.89061,1.45432 -16.03803,-24.50045 -18.24063,-23.58502 -2.20259,0.91544 6.21433,29.2519 3.84986,29.56607 -2.36447,0.31417 -1.63912,-29.23703 -4.00434,-29.54554 -2.36522,-0.30851 -9.24418,28.44005 -11.44896,27.52989 -2.20478,-0.91016 13.19899,-26.13957 11.30491,-27.58935 -1.89409,-1.44979 -22.22572,20.00771 -23.68004,18.1171 -1.45431,-1.89061 24.50045,-16.03804 23.58502,-18.24063 -0.91543,-2.20259 -29.2519,6.21433 -29.56606,3.84986 -0.31417,-2.36448 29.23703,-1.63913 29.54553,-4.00434 0.30851,-2.36522 -28.44004,-9.24419 -27.52989,-11.44896 0.91016,-2.20478 26.13958,13.19899 27.58936,11.30491 1.44978,-1.89409 -20.00771,-22.22572 -18.1171,-23.68004 1.8906,-1.45431 16.03803,24.50045 18.24062,23.58502 2.2026,-0.91544 -6.21432,-29.2519 -3.84985,-29.56607 2.36447,-0.31417 1.63912,29.23704 4.00434,29.54554 2.36522,0.30851 9.24418,-28.44005 11.44896,-27.52989 2.20478,0.91016 -13.199,26.13957 -11.30491,27.58936 1.89408,1.44978 22.22572,-20.00772 23.68003,-18.11711 1.45432,1.89061 -24.50045,16.03804 -23.58501,18.24063 0.91543,2.20259 29.25189,-6.21433 29.56606,-3.84985 0.31417,2.36447 -29.23703,1.63912 -29.54554,4.00434 -0.3085,2.36521 28.44005,9.24418 27.52989,11.44896 -0.91015,2.20477 -26.13957,-13.199 -27.58935,-11.30491 -1.44979,1.89408 20.00771,22.22572 18.1171,23.68003 z"
       inkscape:transform-center-x="0.30678193"
       inkscape:transform-center-y="-0.23098559" />
    <path
       inkscape:transform-center-y="-0.10974459"
       inkscape:transform-center-x="0.23058797"
       d="m 250.88817,201.03029 c -1.2573,0.96715 -10.66566,-16.29337 -12.13044,-15.68458 -1.46477,0.60878 4.13267,19.45318 2.56024,19.66211 -1.57242,0.20893 -1.09005,-19.4433 -2.66297,-19.64846 -1.57293,-0.20516 -6.1476,18.91328 -7.61382,18.30801 -1.46623,-0.60528 8.77763,-17.38342 7.51802,-18.34756 -1.25961,-0.96414 -14.78061,13.30559 -15.74777,12.04829 -0.96715,-1.25729 16.29337,-10.66566 15.68458,-12.13043 -0.60878,-1.46478 -19.45318,4.13267 -19.66211,2.56024 -0.20893,-1.57243 19.4433,-1.09005 19.64846,-2.66298 0.20516,-1.57292 -18.91328,-6.14759 -18.30801,-7.61382 0.60528,-1.46623 17.38342,8.77764 18.34756,7.51803 0.96414,-1.25961 -13.30559,-14.78062 -12.04829,-15.74777 1.25729,-0.96715 10.66566,16.29336 12.13043,15.68458 1.46478,-0.60879 -4.13267,-19.45319 -2.56024,-19.66211 1.57243,-0.20893 1.09005,19.44329 2.66298,19.64846 1.57292,0.20516 6.14759,-18.91329 7.61382,-18.30801 1.46623,0.60527 -8.77763,17.38341 -7.51802,18.34755 1.25961,0.96414 14.78061,-13.30559 15.74776,-12.04829 0.96715,1.2573 -16.29336,10.66566 -15.68458,12.13044 0.60879,1.46477 19.45319,-4.13267 19.66212,-2.56024 0.20893,1.57242 -19.4433,1.09005 -19.64846,2.66297 -0.20517,1.57293 18.91328,6.1476 18.308,7.61382 -0.60527,1.46623 -17.38341,-8.77763 -18.34755,-7.51802 -0.96414,1.25961 13.30559,14.78061 12.04829,15.74777 z"
       inkscape:randomized="0"
       inkscape:rounded="0.08"
       inkscape:flatsided="false"
       sodipodi:arg2="1.1769001"
       sodipodi:arg1="0.9151007"
       sodipodi:r2="0.20021421"
       sodipodi:r1="20.021421"
       sodipodi:cy="185.16083"
       sodipodi:cx="238.68089"
       sodipodi:sides="12"
       id="path5851"
       style="display:inline;opacity:1;fill:#edd400;fill-opacity:1;fill-rule:evenodd;stroke:#fce94f;stroke-width:0.86318481;stroke-linecap:round;stroke-linejoin:round;stroke-miterlimit:4;stroke-dasharray:none;stroke-dashoffset:0;stroke-opacity:1"
       sodipodi:type="star"
       transform="matrix(0.97983149,-0.19982554,0.19982554,0.97983149,219.19642,345.56858)" />
    <path
       inkscape:transform-center-y="-0.13415462"
       inkscape:transform-center-x="0.10750806"
       d="m 92.462258,225.94585 c -0.846371,0.65106 -7.179767,-10.96815 -8.165804,-10.55833 -0.986037,0.40981 2.781976,13.09523 1.723469,13.23587 -1.058506,0.14065 -0.733787,-13.08857 -1.792627,-13.22668 -1.05884,-0.13811 -4.138354,12.73179 -5.12537,12.32434 -0.987015,-0.40746 5.90881,-11.70194 5.060883,-12.35096 -0.847928,-0.64903 -9.949816,8.95687 -10.60087,8.1105 -0.651055,-0.84637 10.968146,-7.17977 10.558333,-8.1658 -0.409814,-0.98604 -13.095232,2.78197 -13.235876,1.72347 -0.140644,-1.05851 13.088577,-0.73379 13.226687,-1.79263 0.138109,-1.05884 -12.731791,-4.13835 -12.32434,-5.12537 0.407452,-0.98702 11.701934,5.90881 12.350961,5.06088 0.649026,-0.84793 -8.956877,-9.94981 -8.110506,-10.60087 0.846371,-0.65105 7.179767,10.96815 8.165804,10.55834 0.986037,-0.40982 -2.781975,-13.09524 -1.723469,-13.23588 1.058506,-0.14064 0.733787,13.08858 1.792627,13.22669 1.05884,0.13811 4.138355,-12.73179 5.12537,-12.32434 0.987015,0.40745 -5.90881,11.70193 -5.060883,12.35096 0.847928,0.64902 9.949816,-8.95688 10.60087,-8.11051 0.651055,0.84637 -10.968146,7.17977 -10.558333,8.16581 0.409814,0.98603 13.095232,-2.78198 13.235876,-1.72347 0.140644,1.0585 -13.088577,0.73378 -13.226686,1.79262 -0.13811,1.05884 12.73179,4.13836 12.324339,5.12537 -0.407452,0.98702 -11.701934,-5.90881 -12.350961,-5.06088 -0.649026,0.84793 8.956877,9.94982 8.110506,10.60087 z"
       inkscape:randomized="0"
       inkscape:rounded="0.08"
       inkscape:flatsided="false"
       sodipodi:arg2="1.1769001"
       sodipodi:arg1="0.9151007"
       sodipodi:r2="0.13477752"
       sodipodi:r1="13.477752"
       sodipodi:cy="215.26306"
       sodipodi:cx="84.244728"
       sodipodi:sides="12"
       id="path5853"
       style="display:inline;opacity:1;fill:#edd400;fill-opacity:1;fill-rule:evenodd;stroke:#fce94f;stroke-width:0.5810672;stroke-linecap:round;stroke-linejoin:round;stroke-miterlimit:4;stroke-dasharray:none;stroke-dashoffset:0;stroke-opacity:1"
       sodipodi:type="star"
       transform="matrix(0.96894867,0.24726196,-0.24726196,0.96894867,275.11602,288.56258)" />
  </g>
</svg>
