<?xml version="1.0" encoding="UTF-8" standalone="no"?>
<!-- Created with Inkscape (http://www.inkscape.org/) -->

<svg
   xmlns:dc="http://purl.org/dc/elements/1.1/"
   xmlns:cc="http://creativecommons.org/ns#"
   xmlns:rdf="http://www.w3.org/1999/02/22-rdf-syntax-ns#"
   xmlns:svg="http://www.w3.org/2000/svg"
   xmlns="http://www.w3.org/2000/svg"
   xmlns:sodipodi="http://sodipodi.sourceforge.net/DTD/sodipodi-0.dtd"
   xmlns:inkscape="http://www.inkscape.org/namespaces/inkscape"
   width="8.2876253mm"
   height="8.3829384mm"
   viewBox="0 0 29.365602 29.703325"
   id="svg6017"
   version="1.1"
   inkscape:version="0.91 r13725"
   sodipodi:docname="morpion.svg">
  <defs
     id="defs6019" />
  <sodipodi:namedview
     id="base"
     pagecolor="#ffffff"
     bordercolor="#666666"
     borderopacity="1.0"
     inkscape:pageopacity="0.0"
     inkscape:pageshadow="2"
     inkscape:zoom="18.76345"
     inkscape:cx="14.682801"
     inkscape:cy="14.315345"
     inkscape:document-units="px"
     inkscape:current-layer="layer1"
     showgrid="false"
     fit-margin-top="0"
     fit-margin-left="0"
     fit-margin-right="0"
     fit-margin-bottom="0"
     inkscape:window-width="1366"
     inkscape:window-height="702"
     inkscape:window-x="0"
     inkscape:window-y="27"
     inkscape:window-maximized="1" />
  <metadata
     id="metadata6022">
    <rdf:RDF>
      <cc:Work
         rdf:about="">
        <dc:format>image/svg+xml</dc:format>
        <dc:type
           rdf:resource="http://purl.org/dc/dcmitype/StillImage" />
        <dc:title></dc:title>
      </cc:Work>
    </rdf:RDF>
  </metadata>
  <g
     inkscape:label="Calque 1"
     inkscape:groupmode="layer"
     id="layer1"
     transform="translate(306.11137,-234.6534)">
    <g
       id="g5104"
       style="display:inline;opacity:0.8;fill:#ffffff;fill-opacity:1"
       transform="translate(-312.86793,-58.193153)">
      <path
         sodipodi:nodetypes="cscccccsccccccccsccscsccccccscscccccccccccccscccccssccccccccccccc"
         inkscape:connector-curvature="0"
         id="path5025"
         d="m 19.541131,292.87852 c -0.287391,0.0555 -0.523462,0.28401 -0.59375,0.59375 -0.1707,0.75223 -1.230366,5.667 -1.404412,6.43398 l -0.171875,0.75391 c -1.177254,-0.14307 -6.717933,-1.27655 -7.263672,-1.40039 l -0.1621095,-0.0352 -0.058594,-0.0137 c -0.427743,-0.0971 -0.6654355,0.50209 -0.7424175,0.84134 -0.117146,0.51623 0.3769283,0.46707 0.952168,0.59761 0.617278,0.14007 5.464807,1.29427 6.747281,1.46534 -0.133073,0.62043 -0.48364,2.40653 -0.84375,4.2461 -0.33992,1.44317 -0.735633,3.0788 -0.818359,3.44336 -0.01631,0.0718 -0.02591,0.13559 -0.04102,0.20508 -1.304728,-0.17417 -5.3807358,-1.08243 -5.9168603,-1.20408 l -0.1621093,-0.0352 -0.058594,-0.0137 c -0.427743,-0.0971 -0.7999711,0.23692 -0.8769531,0.57617 -0.117146,0.51623 0.2021047,0.82063 0.7773437,0.95117 0.634237,0.14392 4.890611,1.10451 5.97936,1.22752 -0.375603,1.45019 -1.571886,6.16586 -1.755974,6.9771 -0.174048,0.76699 -0.498449,1.30531 0.268535,1.47935 0.412993,0.0937 0.8892,0.0682 0.98292,-0.34482 0.04351,-0.19174 0.163459,-0.53398 0.22706,-0.81422 0.182747,-0.80533 1.367531,-5.47052 1.769646,-7.0396 0.09356,0.0407 0.190799,0.0811 0.306641,0.10742 0.272439,0.0618 1.621609,0.34027 2.953125,0.60938 1.676075,0.43201 3.376776,0.85433 4.240234,0.78906 0.0044,5.1e-4 0.01918,0.003 0.02344,0.004 -0.375604,1.45019 -1.638178,6.85087 -1.822266,7.66211 -0.174048,0.76699 -0.321672,1.4158 0.445312,1.58984 0.412993,0.0937 0.800812,-0.17489 0.894532,-0.58789 0.04351,-0.19174 0.07507,-0.4014 0.138672,-0.68164 0.184087,-0.81124 1.457261,-6.25733 1.849609,-7.78125 2.489979,0.44095 6.543434,2.06227 6.777728,1.02975 0.09372,-0.41299 0.15518,-0.84378 -0.257813,-0.9375 -0.398242,-0.0904 -5.586121,-1.47604 -6.156634,-1.55905 l 0.1875,-0.82617 c 0.09843,-0.43375 0.353702,-1.58097 0.605469,-2.83594 0.404567,-1.71602 0.759964,-3.26672 0.964844,-4.0625 2.489979,0.44095 7.828205,2.29424 8.0625,1.26172 0.09372,-0.41299 -0.15732,-0.81058 -0.570313,-0.9043 -0.398242,-0.0904 -6.558393,-1.74316 -7.128906,-1.82617 l 0.1875,-0.82617 c 0.281152,-1.23897 1.880136,-7.90243 0.847656,-8.13672 -0.412991,-0.0937 -0.800814,0.1749 -0.894531,0.58789 -0.1707,0.75223 -1.296657,6.63927 -1.470703,7.40625 l -0.171875,0.75196 c -0.391939,-0.0476 -1.308242,-0.21703 -2.322266,-0.41016 -1.965674,-0.51718 -4.778818,-1.25637 -5.191406,-1.31641 l 0.1875,-0.82617 c 0.281152,-1.23897 1.144748,-6.14258 1.2675,-6.83494 0.0539,-0.30401 -0.7882,-0.43498 -0.786917,-0.33746 z m -1.0841,9.68593 c 0.102029,0.048 0.215127,0.0895 0.345703,0.11914 0.613559,0.13923 5.699866,1.19023 7.021485,1.3711 -0.189234,0.90219 -0.65137,3.28225 -1.019531,5.14453 -0.227823,0.97234 -0.546134,2.28069 -0.607422,2.55078 -0.0028,0.0124 -0.005,0.0229 -0.0078,0.0352 -0.902682,-0.1175 -3.409957,-0.61741 -5.259765,-0.99414 -0.870918,-0.22288 -2.006552,-0.52002 -2.177735,-0.54493 l 0.1875,-0.82617 c 0.123388,-0.54374 0.492185,-2.15752 0.789063,-3.78906 0.309205,-1.30437 0.554849,-2.38092 0.728515,-3.06641 z"
         style="font-style:normal;font-variant:normal;font-weight:normal;font-stretch:normal;font-size:medium;line-height:125%;font-family:Bromine;-inkscape-font-specification:'Bromine, Normal';text-align:start;letter-spacing:0px;word-spacing:0px;writing-mode:lr-tb;text-anchor:start;fill:#ffffff;fill-opacity:1;stroke:none;stroke-width:1px;stroke-linecap:butt;stroke-linejoin:miter;stroke-opacity:1" />
      <path
         d="m 20.631432,305.76156 c 0.0678,0.10759 0.16613,0.17088 0.273307,0.1952 0.08769,0.0199 0.17007,0.018 0.268808,-0.0107 0.387457,-0.12723 0.740845,-0.14949 1.042889,-0.0809 0.448203,0.1017 1.161839,0.70418 0.92747,1.737 -0.207836,0.91589 -1.564916,1.70417 -2.519777,1.48749 -0.789222,-0.1791 -1.130885,-0.8406 -0.927469,-1.73701 0.152559,-0.67229 0.480088,-1.21268 0.934772,-1.59102 z m 1.835342,-0.86418 c -0.117416,-0.15983 -0.209528,-0.16025 -0.405298,-0.24565 l -0.195763,-0.0854 c -0.100546,-0.0536 -0.190444,-0.0637 -0.278134,-0.0836 -1.393317,-0.31618 -2.588884,1.43083 -2.851994,2.5903 -0.25648,1.13025 0.01326,2.6053 1.640425,2.97454 1.490753,0.33828 3.380951,-0.67736 3.725872,-2.19735 0.04201,-0.18513 0.0592,-0.39637 0.06135,-0.63152 -0.04426,-1.24971 -0.683136,-2.09137 -1.696452,-2.32131 z"
         style="font-style:normal;font-variant:normal;font-weight:normal;font-stretch:normal;font-size:medium;line-height:125%;font-family:Bromine;-inkscape-font-specification:'Bromine, Normal';text-align:start;letter-spacing:0px;word-spacing:0px;writing-mode:lr-tb;text-anchor:start;display:inline;fill:#729fcf;fill-opacity:1;stroke:none;stroke-width:1px;stroke-linecap:butt;stroke-linejoin:miter;stroke-opacity:1"
         id="path5031"
         inkscape:connector-curvature="0" />
      <g
         id="text5084"
         style="font-style:normal;font-variant:normal;font-weight:normal;font-stretch:normal;font-size:15.12470341px;line-height:125%;font-family:Bromine;-inkscape-font-specification:'Bromine, Normal';text-align:start;letter-spacing:0px;word-spacing:0px;writing-mode:lr-tb;text-anchor:start;display:inline;fill:#ffb0ff;fill-opacity:1;stroke:none;stroke-width:1px;stroke-linecap:butt;stroke-linejoin:miter;stroke-opacity:1"
         transform="matrix(0.38114815,0.43653837,-0.43653837,0.38114815,80.017292,203.59416)">
        <path
           inkscape:connector-curvature="0"
           id="path5089"
           d="m 62.083905,214.92277 c 0.105873,0.10587 0.28737,0.30249 0.54449,0.58986 l 1.225101,1.42172 -2.465327,3.61481 c -0.07562,0.121 -0.120998,0.25712 -0.120998,0.42349 0,0.40837 0.332744,0.75624 0.756235,0.75624 0.25712,0 0.468866,-0.10588 0.635238,-0.33275 l 2.162833,-3.20644 c 0.801609,1.08898 1.421722,2.10234 1.830089,3.08544 0.120997,0.28737 0.408367,0.45375 0.695736,0.45375 0.468866,0 0.756235,-0.37812 0.756235,-0.75624 0,-0.121 -0.01512,-0.22687 -0.0605,-0.30249 -0.529364,-1.20998 -1.300724,-2.48046 -2.329204,-3.81143 0.892358,-1.33097 1.618343,-2.5107 2.208207,-3.53918 0.07562,-0.10587 0.105873,-0.242 0.105873,-0.37812 0,-0.40836 -0.332744,-0.75623 -0.77136,-0.75623 -0.28737,0 -0.499115,0.121 -0.635238,0.37812 -0.529364,0.9226 -1.164602,1.95108 -1.905712,3.05519 l -0.937732,-1.10411 c -0.378118,-0.43861 -0.680612,-0.74111 -0.786485,-0.80161 l -0.453741,-0.77136 c -0.136122,-0.24199 -0.393242,-0.36299 -0.635237,-0.36299 -0.438617,0 -0.77136,0.34787 -0.77136,0.75623 0,0.15125 0.03025,0.28737 0.105873,0.39325 l 0.453741,0.75623 c 0.136122,0.242 0.211746,0.31762 0.393242,0.43862 z"
           style="fill:#ffb0ff;fill-opacity:1" />
      </g>
      <g
         transform="matrix(0.64215986,0.15494487,-0.15494487,0.64215986,25.417784,150.0326)"
         style="font-style:normal;font-variant:normal;font-weight:normal;font-stretch:normal;font-size:15.12470341px;line-height:125%;font-family:Bromine;-inkscape-font-specification:'Bromine, Normal';text-align:start;letter-spacing:0px;word-spacing:0px;writing-mode:lr-tb;text-anchor:start;display:inline;fill:#ffb0ff;fill-opacity:1;stroke:none;stroke-width:1px;stroke-linecap:butt;stroke-linejoin:miter;stroke-opacity:1"
         id="g5098">
        <path
           d="m 62.083905,214.92277 c 0.105873,0.10587 0.28737,0.30249 0.54449,0.58986 l 1.225101,1.42172 -2.465327,3.61481 c -0.07562,0.121 -0.120998,0.25712 -0.120998,0.42349 0,0.40837 0.332744,0.75624 0.756235,0.75624 0.25712,0 0.468866,-0.10588 0.635238,-0.33275 l 2.162833,-3.20644 c 0.801609,1.08898 1.421722,2.10234 1.830089,3.08544 0.120997,0.28737 0.408367,0.45375 0.695736,0.45375 0.468866,0 0.756235,-0.37812 0.756235,-0.75624 0,-0.121 -0.01512,-0.22687 -0.0605,-0.30249 -0.529364,-1.20998 -1.300724,-2.48046 -2.329204,-3.81143 0.892358,-1.33097 1.618343,-2.5107 2.208207,-3.53918 0.07562,-0.10587 0.105873,-0.242 0.105873,-0.37812 0,-0.40836 -0.332744,-0.75623 -0.77136,-0.75623 -0.28737,0 -0.499115,0.121 -0.635238,0.37812 -0.529364,0.9226 -1.164602,1.95108 -1.905712,3.05519 l -0.937732,-1.10411 c -0.378118,-0.43861 -0.680612,-0.74111 -0.786485,-0.80161 l -0.453741,-0.77136 c -0.136122,-0.24199 -0.393242,-0.36299 -0.635237,-0.36299 -0.438617,0 -0.77136,0.34787 -0.77136,0.75623 0,0.15125 0.03025,0.28737 0.105873,0.39325 l 0.453741,0.75623 c 0.136122,0.242 0.211746,0.31762 0.393242,0.43862 z"
           id="path5100"
           inkscape:connector-curvature="0"
           style="fill:#ffb0ff;fill-opacity:1" />
      </g>
      <path
         inkscape:connector-curvature="0"
         id="path5102"
         style="font-style:normal;font-variant:normal;font-weight:normal;font-stretch:normal;font-size:medium;line-height:125%;font-family:Bromine;-inkscape-font-specification:'Bromine, Normal';text-align:start;letter-spacing:0px;word-spacing:0px;writing-mode:lr-tb;text-anchor:start;display:inline;fill:#729fcf;fill-opacity:1;stroke:none;stroke-width:1px;stroke-linecap:butt;stroke-linejoin:miter;stroke-opacity:1"
         d="m 28.99515,320.6161 c -0.03643,-0.12184 -0.114159,-0.20921 -0.210873,-0.2614 -0.07913,-0.0427 -0.158995,-0.063 -0.261813,-0.0619 -0.40739,0.0186 -0.753782,-0.0549 -1.026326,-0.20203 -0.40445,-0.21829 -0.930154,-0.99023 -0.427127,-1.92222 0.446079,-0.82648 1.964959,-1.22152 2.826603,-0.75646 0.712172,0.3844 0.863714,1.11334 0.427123,1.92223 -0.327436,0.60666 -0.788011,1.03929 -1.327571,1.28168 z m -1.999962,0.33976 c 0.0702,0.18548 0.158817,0.21062 0.324475,0.34544 l 0.165652,0.13481 c 0.08247,0.0786 0.166353,0.11249 0.245482,0.1552 1.257294,0.67861 2.877962,-0.68332 3.442675,-1.7296 0.550482,-1.01991 0.686622,-2.51323 -0.781693,-3.30573 -1.345221,-0.72605 -3.438685,-0.25512 -4.178988,1.11648 -0.09017,0.16706 -0.163433,0.36593 -0.22863,0.59187 -0.29285,1.21572 0.09663,2.19799 1.011023,2.69152 z" />
    </g>
  </g>
</svg>
